<?xml version="1.0" encoding="UTF-8" standalone="no"?>
<svg viewBox="0 0 32 32" fill="none" height="32" width="32" xmlns="http://www.w3.org/2000/svg">
    <style>
        path:not(:target) {
        display: none;
        }
        g:target path {
        display: inline;
        }
    </style>
    <g id="icon">
        <path fill="#B0B8BC" id="border"
            d="M16 3C23.17 3 29 8.83 29 16S23.17 29 16 29 3 23.17 3 16 8.83 3 16 3ZM16 2C8.27 2 2 8.27 2 16S8.27 30 16 30 30 23.73 30 16 23.73 2 16 2Z"></path>
        <path fill="#FF7B33" id="a" clip-rule="evenodd"
            d="M20.65 21.59H15.09C13.86 21.59 12.88 21.32 12.15 20.75 11.37 20.14 10.98 19.22 10.98 18.08V18.02C10.98 14.67 14.61 14.25 15.79 14.25H18.55V14.01C18.55 13.53 18.36 12.78 17.66 12.42 16.66 11.92 14.68 12.11 13.03 13.13 12.83 13.26 12.56 13.18 12.55 12.96L12.45 11.3C12.45 11.2 12.49 11.12 12.57 11.08 13.71 10.4 15.09 10.06 16.42 10.06S19.18 10.44 19.93 11.24C20.65 12.01 20.98 13.16 20.98 14.67V21.27C20.98 21.45 20.83 21.6 20.65 21.6V21.59ZM13.53 18.04C13.53 18.5 13.71 18.84 14.08 19.13 14.43 19.4 14.81 19.51 15.25 19.54H18.54V16.27H15.93C13.94 16.27 13.54 17.45 13.53 18.04Z"
            fill-rule="evenodd"></path>
        <path fill="#D9DFE4" id="shadow"
            d="M25.97 9.32C25.97 9.55 26 9.77 26 10 26 14.05 24.48 17.74 22 20.56V22.44C22 22.62 21.85 22.77 21.67 22.77L19.62 22.76C16.94 24.78 13.61 26 10 26 9.77 26 9.54 25.98 9.32 25.97 11.23 27.25 13.53 28 16 28 22.63 28 28 22.63 28 16 28 13.52 27.25 11.23 25.97 9.32Z"></path>
    </g>
</svg>